<svg xmlns="http://www.w3.org/2000/svg" viewBox="0 0 128 128" width="128" height="128">
  <rect width="128" height="128" rx="16" fill="#ffffff"/>
  <!-- weclapp brand "w" mark, original paths scaled to fit 128x128 with padding -->
  <!-- Original symbol bounding box: x≈0.1-58.9, y≈10.5-60.0 (w≈58.8, h≈49.5) -->
  <!-- Scale=1.86, translate to center: tx=9, ty=17.5 -->
  <g transform="translate(9 17.5) scale(1.86) translate(-0.1 -10.5)">
    <path fill="#12da9d" d="M16.4,15.7L12.1,44a3.8,3.8,0,0,1-7.6,0L0.3,15.7a4.1,4.1,0,0,1,3.8-5.2h8.5A4.1,4.1,0,0,1,16.4,15.7Z"/>
    <path fill="#12da9d" d="M58.9,15.7L54.7,44c-0.7,4.4-7.1,4.3-7.6,0L42.8,15.7a4.1,4.1,0,0,1,3.8-5.2h8.5A4.1,4.1,0,0,1,58.9,15.7Z"/>
    <path fill="#12da9d" d="M21.5,54.9l4.3-28.4c0.7-4.3,7.1-4.2,7.6,0l4.3,28.4A4.2,4.2,0,0,1,33.8,60H25.4A4.2,4.2,0,0,1,21.5,54.9Z"/>
  </g>
</svg>
